<svg xmlns="http://www.w3.org/2000/svg"><title>svg-icon-sprite</title>
<defs>
<symbol id="heart-icon" viewBox="0 0 32 32">
<path d="M29.56,2.81h0a7.56,7.56,0,0,0-11.76,0L16,4.88,14.2,2.81a7.56,7.56,0,0,0-11.76,0h0a10.65,10.65,0,0,0,0,13.56l1.8,2.07L16,32,27.76,18.44l1.8-2.07A10.65,10.65,0,0,0,29.56,2.81Z"/>
</symbol>
<symbol id="lamp-icon" viewBox="0 0 223.23 256" preserveAspectRatio="xMidYMid meet">
<path d="M8.72,102.9h150v16.57a11.34,11.34,0,1,0,8.72,0V102.9h47.09c4.8,0,6.8-3.42,4.46-7.61l-49-87.67A16.46,16.46,0,0,0,157,0H57.55A15.09,15.09,0,0,0,45.09,7.88L3.74,95C1.68,99.35,3.92,102.9,8.72,102.9Z"/><path d="M97.66,109.87v97.41H66.27c-4.8,0-8.72,3.65-8.72,8.1s3.92,8.1,8.72,8.1h94.18c4.8,0,8.72-3.65,8.72-8.1s-3.92-8.1-8.72-8.1H127.31V109.87Z"/><rect y="223.6" width="223.23" height="32.4" rx="8.72" ry="8.72"/>
</symbol>
</defs>
</svg>