<?xml version="1.0" encoding="utf-8"?>
<!-- Generator: Adobe Illustrator 16.0.0, SVG Export Plug-In . SVG Version: 6.00 Build 0)  -->
<!DOCTYPE svg PUBLIC "-//W3C//DTD SVG 1.1//EN" "http://www.w3.org/Graphics/SVG/1.1/DTD/svg11.dtd">
<svg version="1.1" id="Layer_1" xmlns="http://www.w3.org/2000/svg" xmlns:xlink="http://www.w3.org/1999/xlink" x="0px" y="0px"
	 width="514.807px" height="546px" viewBox="0 0 514.807 546" enable-background="new 0 0 514.807 546" xml:space="preserve">
<path fill="none" stroke="#000000" stroke-width="8" stroke-miterlimit="10" d="M124.464,292.415
	c2.476-8.305,20.714-14.342,28.103-17.623c13.864-6.157,27.607-10.438,42.796-10.426c13.055,0.011,26.109,0,39.164,0
	c7.753,0,17.805-1.706,25.303,0.61"/>
<path fill="#22B573" stroke="#22B573" stroke-width="2" stroke-miterlimit="10" d="M129.171,394.586
	c-21.951,3.658-38.253-25.252-41.764-28.78c-5.015-5.042-15.082-20.483-8.889-27.468c-7.634-8.665-14.251-29.951-10.707-41.4
	c1.005-3.246,8.574-16.025,11.981-11.642c-0.038-6.618-2.622-19.688,6.603-20.833c0.569-10.163-0.021-15.571,9.837-21.81
	c5.022-3.178,15.7-7.513,21.491-5.419c3.589-6.203,11.354-13.264,19.179-11.559c6.102,1.33,7.246,8.568,11.735,10.441
	c3.748,1.563,13.609-1.241,17.774-1.313c7.093-0.122,17.408-1.977,23.667,2.3c4.113,2.81,6.586,8.451,6.155,13.432
	c12.656,3.97,21.896,22.228,14.665,34.189c8.289,1.205,18.995,6.021,21.372,14.559c2.647,9.507-5.278,15.907-6.357,23.988
	c-0.626,4.69,3.067,9.278,2.656,14.562c-0.691,8.864-7.563,11.365-12.247,17.313c-2.625,3.334-2.21,7.706-4.793,12.456
	c-4.588,8.438-10.031,5.971-16.546,9.864c-3.472,2.075-4.2,5.686-9.109,7.527c-3.571,1.34-1.215,13.739-24.996,12.641
	L129.171,394.586z"/>
<path fill="#39B54A" stroke="#39B54A" stroke-width="2" stroke-miterlimit="10" d="M67.171,171.535
	c-21.951-3.658-38.253,25.252-41.764,28.78c-5.015,5.042-15.082,20.483-8.889,27.468c-7.634,8.665-14.251,29.951-10.707,41.4
	c1.005,3.246,8.574,16.025,11.981,11.642c-0.038,6.618-2.622,19.688,6.603,20.833c0.569,10.163-0.021,15.57,9.837,21.81
	c5.022,3.179,15.7,7.513,21.491,5.419c3.589,6.203,11.354,13.264,19.179,11.559c6.102-1.329,7.246-8.567,11.735-10.44
	c3.748-1.563,13.609,1.241,17.774,1.313c7.093,0.122,17.408,1.977,23.667-2.3c4.113-2.811,6.586-8.451,6.155-13.432
	c12.656-3.97,21.896-22.228,14.665-34.189c8.289-1.205,18.995-6.021,21.372-14.559c2.647-9.507-5.278-15.907-6.357-23.988
	c-0.626-4.69,3.067-9.278,2.656-14.562c-0.691-8.864-7.563-11.365-12.247-17.313c-2.625-3.334-2.21-7.706-4.793-12.456
	c-4.588-8.438-10.031-5.971-16.546-9.864c-3.472-2.075-4.2-5.686-9.109-7.527c-3.571-1.34-1.215-13.739-24.996-12.641
	L67.171,171.535z"/>
<path fill="#39B54A" stroke="#39B54A" stroke-width="2" stroke-miterlimit="10" d="M168.61,125.342
	c-14.024-7.317-9.431-36.65-4.691-51.813c1.38-4.413,2.462-2.574,4.439-5.432c2.972-4.297,3.431-8.428,8.519-11.671
	c6.042-3.851,15.739-3.065,21.174-6.69c2.222-1.481,2.924-4.113,5.004-5.936c5.299-4.644,39.52-11.061,36.272,3.398
	c8.563-7.612,32.594-7.013,43.127-4.463c10.609,2.569,12.52,7.448,12.568,17.284c0.038,7.695-0.495,8.127,6.795,12.096
	c11.708,6.374,15.237,10.235,15.21,24.142c-0.016,8.316-2.626,12.92-5.558,19.803c-1.611,3.785-2.25,5.202-1.112,10.034
	c2.124,9.013,5.657,17.054-0.003,25.876c-3.003,4.681-6.928,10.037-12.812,10.641c-0.054,7.739-1.709,13.195-8.077,18.343
	c-9.439,7.631-32.366,10.031-43.602,6.079c-3.644,5.169-15.336-2.813-20.543-3.767c-13.228-2.424-26.182-5.898-26.063-21.305
	c-16.865,1.04-27.6-5.572-30.039-12.84L168.61,125.342z"/>
<path fill="#009245" stroke="#009245" stroke-width="2" stroke-miterlimit="10" d="M74.61,148.863
	c-14.024,7.317-9.431,36.65-4.691,51.813c1.38,4.413,2.462,2.574,4.439,5.432c2.972,4.297,3.431,8.428,8.519,11.671
	c6.042,3.851,15.739,3.065,21.174,6.69c2.222,1.481,2.924,4.113,5.004,5.936c5.299,4.644,39.52,11.061,36.272-3.398
	c8.563,7.612,32.594,7.013,43.127,4.463c10.609-2.569,12.52-7.448,12.568-17.284c0.038-7.695-0.495-8.127,6.795-12.096
	c11.708-6.374,15.237-10.235,15.21-24.142c-0.016-8.316-2.626-12.92-5.558-19.803c-1.611-3.785-2.25-5.202-1.112-10.034
	c2.124-9.013,5.657-17.054-0.003-25.876c-3.003-4.681-6.928-10.037-12.812-10.641c-0.054-7.739-1.709-13.195-8.077-18.343
	c-9.439-7.631-32.366-10.031-43.602-6.079c-3.644-5.169-15.336,2.813-20.543,3.767c-13.228,2.424-26.182,5.898-26.063,21.305
	c-16.865-1.04-27.6,5.572-30.039,12.84L74.61,148.863z"/>
<path fill="#39B54A" stroke="#39B54A" stroke-width="2" stroke-miterlimit="10" d="M412.243,162.724
	c-1.677-7.482-21.242-13.722-28.129-10.034c-10.985,5.882-14.568,26.867-16.032,37.717c4.855-3.179-4.739-5.295-7.692-3.418
	c-5.957,3.788-5.558,17.308-5.379,23.099c0.339,10.922,2.633,23.623,6.505,33.962c1.215,3.243,3.152,5.831,3.421,9.026
	c0.478,5.67-1.383,8.673,0.856,14.75c6.234,16.917,37.132,26.633,51.713,15.655c-2.272,7.497,26.924,10.12,32.113,8.942
	c2.188-0.494,31.691-14.415,21.021-17.7c13.094-7.912,26.379-24.02,27.573-40.298c0.606-8.268-1.807-10.199-9.128-11.388
	c12.205,2.828,30.354-19.256,24.635-31.085c-2.74-5.668-9.029-7.604-14.665-8.656c0.881-7.57,3.511-15.465-1.243-22.56
	c-3.144-4.694-10.683-8.248-16.271-6.043c1.146-6.839,9.389-24.252-2.053-26.573c-4.176-0.848-7.041,2.74-11.071,2.937
	c-4.239,0.207-8.441-3.587-12.581-3.012c-6.582,0.914-13.73,11.188-18.845,15.599c0.989-4.805-6.137-7.489-9.996-6.695
	L412.243,162.724z"/>
<path fill="#8CC63F" stroke="#8CC63F" stroke-width="2" stroke-miterlimit="10" d="M334.171,387.586
	c-21.951,3.658-38.253-25.252-41.764-28.78c-5.015-5.042-15.082-20.483-8.889-27.468c-7.634-8.665-14.251-29.951-10.707-41.4
	c1.005-3.246,8.574-16.025,11.981-11.642c-0.038-6.618-2.622-19.688,6.603-20.833c0.569-10.163-0.021-15.571,9.837-21.81
	c5.022-3.178,15.7-7.513,21.491-5.419c3.589-6.203,11.354-13.264,19.179-11.559c6.102,1.33,7.246,8.568,11.735,10.441
	c3.748,1.563,13.609-1.241,17.773-1.313c7.094-0.122,17.408-1.977,23.668,2.3c4.112,2.81,6.586,8.451,6.154,13.432
	c12.656,3.97,21.896,22.228,14.664,34.189c8.289,1.205,18.996,6.021,21.373,14.559c2.646,9.507-5.278,15.907-6.357,23.988
	c-0.627,4.69,3.066,9.278,2.655,14.562c-0.69,8.864-7.563,11.365-12.247,17.313c-2.625,3.334-2.21,7.706-4.793,12.456
	c-4.588,8.438-10.03,5.971-16.546,9.864c-3.472,2.075-4.2,5.686-9.109,7.527c-3.571,1.34-1.216,13.739-24.995,12.641
	L334.171,387.586z"/>
<path fill="#009245" stroke="#009245" stroke-width="2" stroke-miterlimit="10" d="M256.171,345.586
	c-21.951,3.658-38.253-25.252-41.764-28.78c-5.015-5.042-15.082-20.483-8.889-27.468c-7.634-8.665-14.251-29.951-10.707-41.4
	c1.005-3.246,8.574-16.025,11.981-11.642c-0.038-6.618-2.622-19.688,6.603-20.833c0.569-10.163-0.021-15.571,9.837-21.81
	c5.022-3.178,15.7-7.513,21.491-5.419c3.589-6.203,11.354-13.264,19.179-11.559c6.102,1.33,7.246,8.568,11.735,10.441
	c3.748,1.563,13.609-1.241,17.773-1.313c7.094-0.122,17.408-1.977,23.668,2.3c4.112,2.81,6.586,8.451,6.154,13.432
	c12.656,3.97,21.896,22.228,14.664,34.189c8.289,1.205,18.996,6.021,21.373,14.559c2.646,9.507-5.278,15.907-6.357,23.988
	c-0.627,4.69,3.066,9.278,2.655,14.562c-0.69,8.864-7.563,11.365-12.247,17.313c-2.625,3.334-2.21,7.706-4.793,12.456
	c-4.588,8.438-10.03,5.971-16.546,9.864c-3.472,2.075-4.2,5.686-9.109,7.527c-3.571,1.34-1.216,13.739-24.995,12.641
	L256.171,345.586z"/>
<path fill="none" stroke="#754C24" stroke-width="12" stroke-miterlimit="10" d="M229.342,266.811
	c3.93,3.536,7.69,9.707,12.221,9.443c10.665-0.618,11.122,12.844,16.547,19.653c31.504,39.549,41.781,62.199,22.453,28.683
	c-2.686-4.658,8.465,14.527,9.555,20.971"/>
<path fill="none" stroke="#42210B" stroke-width="12" stroke-miterlimit="10" d="M358.691,261.138
	c-3.439,4.798-7.221,16.824-9.907,23.303c-3.151,7.608-6.194,15.017-8.794,23.229c-2.555,8.072-4.004,18.239-6.717,25.58"/>
<path fill="none" stroke="#000000" stroke-width="8" stroke-miterlimit="10" d="M325.683,137.537
	c0.8,9.472-5.053,18.539-8.092,26.98c-3.75,10.416-5.932,20.979-8.629,31.709c-4.306,17.132-7.686,35.592-7.669,53.523
	c0.006,6.709-0.92,14.353-0.032,20.973c0.812,6.042,4.387,11.033,3.69,17.758"/>
<path fill="none" stroke="#603813" stroke-width="12" stroke-miterlimit="10" d="M276.829,396.595
	c-26.322-31.789-52.175-77.529-89.02-95.507"/>
<path fill="none" stroke="#42210B" stroke-width="14" stroke-miterlimit="10" d="M298.495,356.674
	c5.854-4.967,10.195-11.021,16.662-15.507c6.1-4.23,13.031-7.834,20.248-10.403c6.219-2.215,11.871-4.63,18.27-6.388
	c5.268-1.446,10.796-3.759,16.135-4.795"/>
<path fill="none" stroke="#42210B" stroke-width="40" stroke-miterlimit="10" d="M274,546c0,0,0-63.189,0-94.821
	c0-30.279,1.341-59.813,9.361-88.979c1.835-6.676,9.08-27.444,19.154-63.048c5.211-18.415,15.145-35.373,21.773-53.552
	c0.835-2.291,1.596-4.441,1.745-6.88"/>
<path fill="#009245" stroke="#009245" stroke-width="2" stroke-miterlimit="10" d="M322.171,173.586
	c-21.951,3.658-38.253-25.252-41.764-28.78c-5.015-5.042-15.082-20.483-8.889-27.468c-7.634-8.665-14.251-29.951-10.707-41.4
	c1.005-3.246,8.574-16.025,11.981-11.642c-0.038-6.618-2.622-19.688,6.603-20.833c0.569-10.163-0.021-15.571,9.837-21.81
	c5.022-3.178,15.7-7.513,21.491-5.419c3.589-6.203,11.354-13.264,19.179-11.559c6.102,1.33,7.246,8.568,11.735,10.441
	c3.748,1.563,13.609-1.241,17.773-1.313c7.094-0.122,17.408-1.977,23.668,2.3c4.112,2.81,6.586,8.451,6.154,13.432
	c12.656,3.97,21.896,22.228,14.664,34.189c8.289,1.205,18.996,6.021,21.373,14.559c2.646,9.507-5.278,15.907-6.357,23.988
	c-0.627,4.69,3.066,9.278,2.655,14.562c-0.69,8.864-7.563,11.365-12.247,17.313c-2.625,3.334-2.21,7.706-4.793,12.456
	c-4.588,8.438-10.03,5.971-16.546,9.864c-3.472,2.075-4.2,5.686-9.109,7.527c-3.571,1.34-1.216,13.739-24.995,12.641
	L322.171,173.586z"/>
<path fill="#8CC63F" stroke="#8CC63F" stroke-width="2" stroke-miterlimit="10" d="M221.171,301.586
	c-21.951,3.658-38.253-25.252-41.764-28.78c-5.015-5.042-15.082-20.483-8.889-27.468c-7.634-8.665-14.251-29.951-10.707-41.4
	c1.005-3.246,8.574-16.025,11.981-11.642c-0.038-6.618-2.622-19.688,6.603-20.833c0.569-10.163-0.021-15.571,9.837-21.81
	c5.022-3.178,15.7-7.513,21.491-5.419c3.589-6.203,11.354-13.264,19.179-11.559c6.102,1.33,7.246,8.568,11.735,10.441
	c3.748,1.563,13.609-1.241,17.773-1.313c7.094-0.122,17.408-1.977,23.668,2.3c4.112,2.81,6.586,8.451,6.154,13.432
	c12.656,3.97,21.896,22.228,14.664,34.189c8.289,1.205,18.996,6.021,21.373,14.559c2.646,9.507-5.278,15.907-6.357,23.988
	c-0.627,4.69,3.066,9.278,2.655,14.562c-0.69,8.864-7.563,11.365-12.247,17.313c-2.625,3.334-2.21,7.706-4.793,12.456
	c-4.588,8.438-10.03,5.971-16.546,9.864c-3.472,2.075-4.2,5.686-9.109,7.527c-3.571,1.34-1.216,13.739-24.995,12.641
	L221.171,301.586z"/>
<path fill="#009245" stroke="#009245" stroke-width="2" stroke-miterlimit="10" d="M323.545,220.146
	c-10.65-9.497-24.064-21.047-30.764-32.682c-3.681-6.391-0.954-7.564-0.92-13.598c0.058-10.046-9.122-23,5.555-30.082
	c6.482-3.128,16.931-3.535,21.577,1.542c0.488-7.576-4.925-30.14,10.65-31.361c-0.438-5.103,1.162-15.92,7.805-18.008
	c9.438-2.967,9.47,4.276,11.015,9.847c4.904-4.45,4.282-11.864,9.615-16.729c5.285-4.823,19.68-9.77,27.21-5.781
	c0.11-8.468,18.577-7.446,26.543-7.962c10.469-0.679,16.866,0.064,25.007,5.504c9.862,6.59,5.741,11.927,10.314,19.323
	c2.552,4.125,8.105,5.29,10.304,10.573c2.872,6.899-0.51,15.411,0.415,21.482c2.266,14.904,27.563,37.308,11.011,54.063
	c-2.252,2.28-4.85-0.747-6.643,2.611c-3.172,5.943,5.044,15.64,5.426,21.646c0.778,12.253-9.104,11.521-19.338,17.86
	c-5.388,3.338-5.093,1.82-5.486,8.215c-0.506,8.213,1.858,15.282-5.484,22.126c-5.987,5.58-9.67,4.448-17.466,5.803
	c-13.104,2.276-32.337,9.898-45.892,2.998c-0.155,0.693,0.036,1.079-0.313,1.757c-8.921,0.372-17.818,0.624-25.058-4.22
	c-3.214-2.151-9.076-6.15-4.229-7.468c-13.604,1.756-25.466-8.736-24.26-18.64c0.134,0.046,2.624,0.498,2.45,0.462
	c-8.507-0.666-10.466-12.786-0.816-13.68c-1.965-1.301-4.947-3.051-7.191-4.213c1.573-1.274,3.907-1.938,6.312-2.081"/>
<path fill="#006837" stroke="#006837" stroke-miterlimit="10" d="M370.947,583.13c0.916-11.272,5.955-21.109,9.637-31.709
	c4.607-13.266,6.102-28.933,12.041-41.567c-7.457,7.986-12.56,25.083-17.025,35.651c-4.533,10.728-6.042,24.977-4.995,36.337"/>
<path fill="#006837" stroke="#006837" stroke-miterlimit="10" d="M392.276,577.371c-0.978-11.268-6.071-21.077-9.812-31.656
	c-4.679-13.241-6.26-28.898-12.269-41.501c7.501,7.946,12.696,25.014,17.222,35.558c4.592,10.703,6.178,24.943,5.193,36.31"/>
<path fill="#006837" stroke="#006837" stroke-miterlimit="10" d="M29.947,588.13c0.916-11.272,5.956-21.109,9.638-31.709
	c4.607-13.266,6.101-28.933,12.041-41.567c-7.457,7.986-12.56,25.083-17.026,35.651c-4.533,10.728-6.042,24.977-4.995,36.337"/>
<path fill="#006837" stroke="#006837" stroke-miterlimit="10" d="M110.276,577.371c-0.978-11.268-6.071-21.077-9.812-31.656
	c-4.679-13.241-6.259-28.898-12.269-41.501c7.501,7.946,12.696,25.014,17.222,35.558c4.592,10.703,6.178,24.943,5.193,36.31"/>
<path fill="#006837" stroke="#006837" stroke-miterlimit="10" d="M121.276,573.371c-0.978-11.268-6.071-21.077-9.812-31.656
	c-4.679-13.241-6.259-28.898-12.269-41.501c7.501,7.946,12.696,25.014,17.222,35.558c4.592,10.703,6.178,24.943,5.193,36.31"/>
<line fill="none" stroke="#8C6239" stroke-width="5" stroke-miterlimit="10" x1="0" y1="545.313" x2="514.807" y2="544.354"/>
</svg>
